<svg width="16" height="16" viewBox="0 0 16 16" fill="none" xmlns="http://www.w3.org/2000/svg">
<path d="M7.99998 4.66671C7.63331 4.66671 7.33331 4.96671 7.33331 5.33337V7.33337H5.33331C4.96665 7.33337 4.66665 7.63337 4.66665 8.00004C4.66665 8.36671 4.96665 8.66671 5.33331 8.66671H7.33331V10.6667C7.33331 11.0334 7.63331 11.3334 7.99998 11.3334C8.36665 11.3334 8.66665 11.0334 8.66665 10.6667V8.66671H10.6666C11.0333 8.66671 11.3333 8.36671 11.3333 8.00004C11.3333 7.63337 11.0333 7.33337 10.6666 7.33337H8.66665V5.33337C8.66665 4.96671 8.36665 4.66671 7.99998 4.66671ZM7.99998 1.33337C4.31998 1.33337 1.33331 4.32004 1.33331 8.00004C1.33331 11.68 4.31998 14.6667 7.99998 14.6667C11.68 14.6667 14.6666 11.68 14.6666 8.00004C14.6666 4.32004 11.68 1.33337 7.99998 1.33337ZM7.99998 13.3334C5.05998 13.3334 2.66665 10.94 2.66665 8.00004C2.66665 5.06004 5.05998 2.66671 7.99998 2.66671C10.94 2.66671 13.3333 5.06004 13.3333 8.00004C13.3333 10.94 10.94 13.3334 7.99998 13.3334Z" fill="#9873FF"/>
</svg>
